# xmcd CD database file
#
# Track frame offsets:
#	150
#	16877
#	37241
#	57903
#	73868
#	90800
#	107182
#	124136
#	139924
#	156651
#	177015
#	197677
#	213642
#	230574
#	246956
#	263910
#
# Disc length: 3729 seconds
#
# Revision: 2
# Processed by: cddbd v1.5.2PL0 Copyright (c) Steve Scherf et al.
# Submitted via: CDex 1.70beta2
#
DISCID=ee0e8f10
DTITLE=Various Artist - The Mega Karaoke Collection Volume 3
DYEAR=2002
DGENRE=Karaoke
TTITLE0=How Do You Like Me Now (Toby Keith)
TTITLE1=Murder on Music Row (George Strait)
TTITLE2=How Do I Live (LeAnn Rimes)
TTITLE3=Bye Bye (Joe Dee Messina)
TTITLE4=Grown Men Don't Cry (Tim McGraw)
TTITLE5=I'll Think of a Reason Later (Lee Ann Womack)
TTITLE6=One More Day (Diamond Rio)
TTITLE7=God Bless the U.S.A. (Lee Greenwood)
TTITLE8=How Do You Like Me Now  (Toby Keith) (Full Vocals)
TTITLE9=Murder on Music Row (George Strait) (Full Vocals)
TTITLE10=How Do I Live (LeAnn Rimes) (Full Vocals)
TTITLE11=Bye Bye (Joe Dee Messina) (Full Vocals)
TTITLE12=Grown Men Don't Cry (Tim McGraw) (Full Vocals)
TTITLE13=I'll Think of a Reason Later (Lee Ann Womack) (Full Vocals)
TTITLE14=One More Day (Diamond Rio) (Full Vocals)
TTITLE15=God Bless the U.S.A. (Lee Greenwood) (Full Vocals)
EXTD=resorted by Sigiere YEAR: 2002
EXTT0=
EXTT1=
EXTT2=
EXTT3=
EXTT4=
EXTT5=
EXTT6=
EXTT7=
EXTT8=
EXTT9=
EXTT10=
EXTT11=
EXTT12=
EXTT13=
EXTT14=
EXTT15=
PLAYORDER=
